<?xml version="1.0" encoding="UTF-8"?> <svg xmlns="http://www.w3.org/2000/svg" width="240" height="75" viewBox="0 0 240 75" fill="none"><g clip-path="url(#clip0_6_86)"><path d="M33.7935 15.528C33.757 15.6831 33.69 15.8294 33.5964 15.9583C33.5027 16.0871 33.3844 16.1961 33.2481 16.2787C33.1119 16.3613 32.9606 16.4159 32.803 16.4394C32.6454 16.4629 32.4847 16.4547 32.3304 16.4153C32.0926 16.361 31.8764 16.2372 31.7094 16.0595C31.5424 15.8818 31.4321 15.6584 31.3926 15.4177C31.353 15.1771 31.3861 14.9301 31.4876 14.7084C31.5891 14.4866 31.7543 14.3001 31.9622 14.1727C32.1701 14.0453 32.4113 13.9827 32.655 13.9929C32.8986 14.0031 33.1337 14.0857 33.3302 14.2301C33.5267 14.3746 33.6757 14.5743 33.7582 14.8037C33.8408 15.0332 33.853 15.2821 33.7935 15.5186V15.528Z" fill="#939598"></path><path d="M36.0779 10.2985C35.9452 10.4985 35.7565 10.6548 35.5353 10.7478C35.3141 10.8408 35.0703 10.8664 34.8346 10.8213C34.5989 10.7763 34.3818 10.6626 34.2105 10.4946C34.0392 10.3265 33.9213 10.1116 33.8718 9.87682C33.8222 9.64203 33.8431 9.39783 33.9319 9.17489C34.0206 8.95194 34.1733 8.76019 34.3707 8.62372C34.568 8.48724 34.8013 8.41212 35.0413 8.40779C35.2812 8.40346 35.517 8.47012 35.7192 8.59939C35.8574 8.68465 35.9769 8.7971 36.0703 8.92992C36.1637 9.06274 36.2292 9.21316 36.2628 9.37206C36.2963 9.53095 36.2972 9.695 36.2654 9.85426C36.2337 10.0135 36.1699 10.1646 36.0779 10.2985Z" fill="#939598"></path><path d="M39.9103 6.09792C39.7852 6.19612 39.642 6.26866 39.4888 6.31138C39.3356 6.3541 39.1755 6.36616 39.0176 6.34687C38.8598 6.32757 38.7073 6.27731 38.5689 6.19895C38.4305 6.12059 38.3089 6.01569 38.2112 5.89025C38.0582 5.70062 37.9652 5.46975 37.9439 5.22705C37.9226 4.98436 37.9741 4.74081 38.0917 4.52745C38.2093 4.31409 38.3877 4.14056 38.6043 4.02898C38.8209 3.91739 39.0658 3.8728 39.3078 3.90088C39.5498 3.92896 39.778 4.02844 39.9632 4.18664C40.1485 4.34485 40.2825 4.55463 40.3481 4.78925C40.4137 5.02387 40.4081 5.27272 40.3318 5.5041C40.2555 5.73548 40.1121 5.93891 39.9197 6.08848L39.9103 6.09792Z" fill="#939598"></path><path d="M44.9039 3.37934C44.6758 3.45344 44.4309 3.45856 44.2 3.39404C43.969 3.32953 43.7622 3.19826 43.6056 3.0167C43.4489 2.83514 43.3494 2.61136 43.3194 2.37345C43.2895 2.13553 43.3304 1.89405 43.4371 1.67931C43.5438 1.46457 43.7116 1.28612 43.9193 1.16634C44.1271 1.04655 44.3655 0.990776 44.6049 1.006C44.8442 1.02122 45.0737 1.10675 45.2646 1.25189C45.4554 1.39702 45.5992 1.59529 45.6779 1.82182C45.7324 1.97474 45.7555 2.13708 45.7458 2.29913C45.7362 2.46117 45.694 2.61962 45.6217 2.76499C45.5495 2.91037 45.4487 3.03969 45.3253 3.14524C45.202 3.2508 45.0586 3.33041 44.9039 3.37934Z" fill="#939598"></path><path d="M50.5581 2.4448C50.3994 2.44234 50.2428 2.40864 50.0972 2.34564C49.9515 2.28263 49.8197 2.19155 49.7092 2.0776C49.5988 1.96364 49.5119 1.82905 49.4534 1.6815C49.395 1.53395 49.3662 1.37633 49.3687 1.21766C49.3688 0.973759 49.4415 0.735413 49.5777 0.533043C49.7138 0.330674 49.9072 0.17346 50.1331 0.0814715C50.3589 -0.0105172 50.6071 -0.0331069 50.8459 0.0165833C51.0847 0.0662736 51.3032 0.18599 51.4737 0.360453C51.6441 0.534915 51.7587 0.756209 51.8028 0.996086C51.8469 1.23596 51.8185 1.48354 51.7213 1.70722C51.624 1.93089 51.4624 2.12052 51.2569 2.25189C51.0514 2.38327 50.8114 2.45042 50.5676 2.4448H50.5581Z" fill="#939598"></path><path d="M56.1274 3.38876C55.9766 3.33786 55.8375 3.25744 55.7181 3.15219C55.5987 3.04694 55.5015 2.91898 55.432 2.77575C55.3626 2.63253 55.3224 2.47692 55.3138 2.318C55.3051 2.15907 55.3282 2.00002 55.3817 1.85011C55.4226 1.68488 55.4974 1.52996 55.6014 1.3952C55.7054 1.26044 55.8362 1.14879 55.9857 1.06734C56.1352 0.98589 56.2999 0.936424 56.4696 0.922086C56.6392 0.907748 56.8099 0.928851 56.9709 0.984056C57.1319 1.03926 57.2797 1.12736 57.4048 1.24275C57.5299 1.35814 57.6297 1.4983 57.6978 1.65433C57.7658 1.81035 57.8006 1.97882 57.8001 2.14903C57.7995 2.31925 57.7635 2.48748 57.6944 2.64303C57.6435 2.79613 57.5625 2.93749 57.4561 3.05877C57.3497 3.18004 57.2201 3.27879 57.0749 3.34917C56.9298 3.41956 56.772 3.46016 56.6109 3.46858C56.4497 3.477 56.2886 3.45307 56.1369 3.3982L56.1274 3.38876Z" fill="#939598"></path><path d="M61.1115 6.12621C60.8859 5.91599 60.7485 5.62803 60.727 5.32044C60.7054 5.01286 60.8014 4.70856 60.9955 4.46896C61.1895 4.22936 61.4673 4.0723 61.7726 4.0295C62.078 3.98669 62.3882 4.06131 62.6407 4.23831C62.8938 4.44051 63.0567 4.73461 63.0939 5.05645C63.131 5.3783 63.0394 5.70177 62.8389 5.9563C62.7403 6.08377 62.6172 6.19022 62.4769 6.2694C62.3365 6.34858 62.1818 6.39889 62.0217 6.41736C61.8616 6.43583 61.6994 6.42209 61.5448 6.37696C61.3901 6.33182 61.246 6.2562 61.1209 6.15453L61.1115 6.12621Z" fill="#939598"></path><path d="M64.944 10.3457C64.7793 10.0804 64.7247 9.76131 64.7917 9.45633C64.8586 9.15135 65.042 8.88454 65.3027 8.71266C65.4374 8.6233 65.5885 8.56164 65.7473 8.5313C65.906 8.50095 66.0693 8.50252 66.2274 8.5359C66.3856 8.56929 66.5355 8.63383 66.6684 8.72577C66.8014 8.8177 66.9147 8.93518 67.0018 9.07136C67.1759 9.34457 67.2349 9.67553 67.1659 9.99207C67.0969 10.3086 66.9056 10.585 66.6336 10.761C66.4968 10.8481 66.3439 10.9067 66.184 10.9334C66.024 10.9602 65.8604 10.9544 65.7027 10.9165C65.545 10.8787 65.3966 10.8094 65.2662 10.713C65.1359 10.6165 65.0263 10.4948 64.944 10.3551V10.3457Z" fill="#939598"></path><path d="M67.1717 15.5847C67.133 15.427 67.127 15.263 67.1541 15.1029C67.1813 14.9428 67.2409 14.7899 67.3293 14.6537C67.4177 14.5175 67.5331 14.4009 67.6684 14.311C67.8036 14.2211 67.9558 14.1598 68.1156 14.131C68.2718 14.0916 68.4343 14.0836 68.5937 14.1074C68.753 14.1312 68.906 14.1865 69.0439 14.2699C69.1817 14.3533 69.3017 14.4632 69.3967 14.5933C69.4918 14.7234 69.56 14.8711 69.5976 15.0277C69.6337 15.1865 69.6378 15.3508 69.6097 15.5112C69.5816 15.6715 69.5219 15.8247 69.434 15.9617C69.3462 16.0988 69.232 16.217 69.098 16.3094C68.964 16.4019 68.813 16.4668 68.6537 16.5003C68.4948 16.5391 68.3297 16.5452 68.1684 16.5183C68.0071 16.4913 67.8529 16.4319 67.7152 16.3437C67.5776 16.2554 67.4592 16.1401 67.3674 16.0048C67.2756 15.8695 67.2122 15.7169 67.1811 15.5564L67.1717 15.5847Z" fill="#939598"></path><path d="M23.6555 53.3617H17.4726V50.5298H17.3782C16.6028 51.5722 15.5971 52.4213 14.4394 53.0108C13.2817 53.6003 12.0035 53.9142 10.7044 53.9281C4.25723 53.8998 0 49.2461 0 42.695C0 36.6443 3.77581 31.0939 9.93982 31.0939C12.7245 31.0939 15.3204 31.849 16.8401 33.9257H16.9345V19.4927H23.6555V53.3617ZM12.0826 36.9652C8.72212 36.9652 6.7115 39.2024 6.7115 42.4779C6.7115 45.7534 8.72212 47.9906 12.0826 47.9906C15.4431 47.9906 17.4631 45.7534 17.4631 42.4779C17.4631 39.2024 15.4525 36.9652 12.0826 36.9652Z" fill="#034EA2"></path><path d="M31.5846 20.0402C32.3561 20.0402 33.1102 20.269 33.7515 20.6978C34.3928 21.1266 34.8925 21.7361 35.1873 22.449C35.4821 23.1619 35.5587 23.9462 35.4075 24.7027C35.2564 25.4592 34.8841 26.1539 34.338 26.6987C33.7918 27.2435 33.0963 27.6141 32.3394 27.7634C31.5825 27.9128 30.7984 27.8343 30.0862 27.5377C29.374 27.2412 28.7658 26.7401 28.3385 26.0977C27.9113 25.4554 27.6842 24.7007 27.6861 23.9292C27.6886 22.8969 28.1004 21.9077 28.8313 21.1787C29.5621 20.4496 30.5523 20.0402 31.5846 20.0402Z" fill="#F7941D"></path><path d="M34.9451 31.5941H28.2242V53.3711H34.9451V31.5941Z" fill="#034EA2"></path><path d="M61.7345 51.5304C61.7345 59.6861 57.5717 64.1227 49.1422 64.1227C45.2908 64.1227 41.3451 63.4431 38.2112 60.9321L41.9304 55.3817C43.8627 57.1626 46.3825 58.1706 49.01 58.2136C53.0879 58.2136 55.0136 55.9764 55.0136 52.8802V50.7658H54.9286C54.1912 51.6787 53.2531 52.4093 52.1872 52.9004C51.1214 53.3916 49.9566 53.6302 48.7835 53.5976C42.3363 53.5976 38.079 48.9345 38.079 42.3551C38.079 36.5687 41.8549 31.0277 48.0283 31.0277C51.8041 31.0277 54.4283 32.859 55.4667 34.4259H55.5516V31.5941H61.7345V51.5304ZM50.1711 47.7546C51.236 47.7564 52.2776 47.4422 53.1639 46.8517C54.0502 46.2612 54.7413 45.421 55.1497 44.4374C55.5581 43.4539 55.6654 42.3713 55.4581 41.3267C55.2508 40.2821 54.7382 39.3225 53.9851 38.5694C53.2321 37.8164 52.2725 37.3037 51.2279 37.0964C50.1833 36.8891 49.1007 36.9965 48.1171 37.4049C47.1336 37.8133 46.2933 38.5044 45.7028 39.3907C45.1123 40.2769 44.7981 41.3185 44.8 42.3835C44.8221 43.7976 45.3963 45.147 46.3998 46.1435C47.4034 47.14 48.7568 47.7047 50.1711 47.7168V47.7546Z" fill="#034EA2"></path><path d="M69.6637 20.0402C70.4352 20.0402 71.1893 20.269 71.8306 20.6978C72.4719 21.1266 72.9716 21.7361 73.2664 22.449C73.5612 23.1619 73.6378 23.9462 73.4866 24.7027C73.3355 25.4592 72.9632 26.1539 72.417 26.6987C71.8709 27.2435 71.1754 27.6141 70.4185 27.7634C69.6616 27.9128 68.8775 27.8343 68.1653 27.5377C67.4531 27.2412 66.8449 26.7401 66.4176 26.0977C65.9904 25.4554 65.7633 24.7007 65.7652 23.9292C65.7677 22.8969 66.1795 21.9077 66.9104 21.1787C67.6412 20.4496 68.6314 20.0402 69.6637 20.0402Z" fill="#F7941D"></path><path d="M73.0242 31.5941H66.3032V53.3711H73.0242V31.5941Z" fill="#034EA2"></path><path d="M92.6962 36.9652H86.7776V44.2242C86.7776 46.5557 87.0514 48.2549 89.9587 48.2549C90.9127 48.3221 91.8652 48.1053 92.6962 47.6318V53.2295C91.173 53.722 89.5765 53.9487 87.9764 53.8997C83.5021 53.8997 80.0472 52.0684 80.0472 47.292V36.9085H75.7428V31.5941H80.0472V25.1375H86.7682V31.5941H92.6867L92.6962 36.9652Z" fill="#034EA2"></path><path d="M109.791 50.6337H109.697C108.224 52.9652 105.534 53.8997 102.796 53.8997C98.7186 53.8997 95.0466 51.5682 95.0466 47.1788C95.0466 39.6272 104.184 39.5233 109.791 39.5233C109.791 37.1446 107.818 35.6248 105.487 35.6248C104.442 35.6339 103.411 35.8709 102.467 36.3192C101.523 36.7676 100.689 37.4165 100.021 38.2207L96.4342 34.5487C99.08 32.2231 102.503 30.9765 106.025 31.0561C113.869 31.0561 115.974 35.0396 115.974 42.2986V53.3617H109.791V50.6337ZM108.13 43.8183C106.072 43.8183 101.522 44.0071 101.522 46.9617C101.522 48.5758 103.221 49.331 104.703 49.331C107.346 49.331 109.81 47.9434 109.81 45.2531V43.8183H108.13Z" fill="#034EA2"></path><path d="M120.269 19.4927H126.99V53.3617H120.269V19.4927Z" fill="#034EA2"></path><path d="M158.999 36.9652H153.081V44.2242C153.081 46.5557 153.355 48.2549 156.262 48.2549C157.216 48.3221 158.168 48.1053 158.999 47.6318V53.2295C157.476 53.7229 155.88 53.9497 154.28 53.8997C149.796 53.8997 146.341 52.0684 146.341 47.292V36.9085H142.065V31.5941H146.36V25.1375H153.081V31.5941H158.999V36.9652Z" fill="#034EA2"></path><path d="M159.802 31.5941H166.976L171.412 45.2531H171.497L175.217 31.5941H182.56L186.601 45.2531H186.714L190.792 31.5941H197.598L189.819 53.3617H183.212L178.662 38.9192H178.577L174.546 53.3617H167.778L159.802 31.5941Z" fill="#034EA2"></path><path d="M203.176 20.0402C203.948 20.0402 204.702 20.269 205.343 20.6978C205.985 21.1266 206.484 21.7361 206.779 22.449C207.074 23.1619 207.15 23.9462 206.999 24.7027C206.848 25.4592 206.476 26.1539 205.93 26.6987C205.384 27.2435 204.688 27.6141 203.931 27.7634C203.174 27.9128 202.39 27.8343 201.678 27.5377C200.966 27.2412 200.358 26.7401 199.93 26.0977C199.503 25.4554 199.276 24.7007 199.278 23.9292C199.28 22.8969 199.692 21.9077 200.423 21.1787C201.154 20.4496 202.144 20.0402 203.176 20.0402Z" fill="#034EA2"></path><path d="M206.537 31.5941H199.816V53.3711H206.537V31.5941Z" fill="#034EA2"></path><path d="M210.473 31.5942H216.92V34.5487H217.005C217.651 33.4459 218.584 32.5387 219.704 31.9237C220.824 31.3087 222.09 31.0089 223.368 31.0561C230.183 31.0561 231.438 35.5304 231.438 41.3546V53.3617H224.717V42.695C224.717 40.1841 224.717 36.9558 221.215 36.9558C217.713 36.9558 217.185 39.6933 217.185 42.5157V53.3617H210.464L210.473 31.5942Z" fill="#034EA2"></path><path d="M78.8201 66.6242C78.58 66.3301 78.2777 66.0929 77.9349 65.9297C77.5922 65.7665 77.2174 65.6813 76.8378 65.6803C76.4009 65.6745 75.9676 65.7585 75.5645 65.927C75.1615 66.0956 74.7973 66.3451 74.4946 66.6602C74.192 66.9753 73.9572 67.3491 73.805 67.7586C73.6527 68.1681 73.5862 68.6045 73.6095 69.0408C73.5729 69.4864 73.6292 69.9348 73.775 70.3575C73.9208 70.7802 74.1527 71.168 74.4562 71.4964C74.7598 71.8247 75.1282 72.0865 75.5381 72.265C75.9481 72.4435 76.3907 72.5349 76.8378 72.5334C77.2551 72.5221 77.6639 72.4129 78.0313 72.2145C78.3986 72.0161 78.7141 71.7341 78.9522 71.3912L80.3304 72.3352C79.9257 72.8765 79.3955 73.3114 78.7854 73.6024C78.1754 73.8935 77.5038 74.032 76.8284 74.0059C76.1612 74.0351 75.4951 73.9289 74.8702 73.6937C74.2452 73.4585 73.6744 73.0992 73.192 72.6375C72.7096 72.1758 72.3257 71.6211 72.0635 71.007C71.8012 70.3929 71.666 69.7321 71.666 69.0644C71.666 68.3966 71.8012 67.7358 72.0635 67.1217C72.3257 66.5076 72.7096 65.953 73.192 65.4912C73.6744 65.0295 74.2452 64.6702 74.8702 64.435C75.4951 64.1998 76.1612 64.0936 76.8284 64.1228C77.455 64.1027 78.0779 64.2267 78.649 64.4853C79.2202 64.7439 79.7244 65.1301 80.1228 65.6142L78.8201 66.6242Z" fill="#939598"></path><path d="M92.8094 64.1793C93.4705 64.1389 94.1327 64.2381 94.753 64.4703C95.3732 64.7026 95.9376 65.0629 96.4095 65.5276C96.8814 65.9924 97.2501 66.5513 97.4918 67.1679C97.7335 67.7845 97.8428 68.4452 97.8124 69.1068C97.8352 69.7677 97.721 70.4263 97.477 71.041C97.233 71.6557 96.8645 72.2132 96.3946 72.6787C95.9248 73.1441 95.3637 73.5073 94.7467 73.7455C94.1297 73.9836 93.4701 74.0916 92.8094 74.0625C92.1423 74.0917 91.4762 73.9855 90.8513 73.7503C90.2263 73.5151 89.6554 73.1558 89.1731 72.6941C88.6907 72.2323 88.3068 71.6777 88.0446 71.0636C87.7823 70.4495 87.6471 69.7887 87.6471 69.1209C87.6471 68.4532 87.7823 67.7923 88.0446 67.1783C88.3068 66.5642 88.6907 66.0095 89.1731 65.5478C89.6554 65.086 90.2263 64.7268 90.8513 64.4916C91.4762 64.2564 92.1423 64.1502 92.8094 64.1793ZM92.8094 72.5522C93.2577 72.5549 93.7017 72.4645 94.1132 72.2866C94.5248 72.1088 94.8949 71.8474 95.2002 71.5191C95.5054 71.1908 95.7392 70.8026 95.8866 70.3792C96.034 69.9559 96.0919 69.5065 96.0566 69.0596C96.0566 68.2009 95.7155 67.3773 95.1083 66.7701C94.5011 66.1629 93.6776 65.8218 92.8189 65.8218C91.9602 65.8218 91.1366 66.1629 90.5294 66.7701C89.9222 67.3773 89.5811 68.2009 89.5811 69.0596C89.5444 69.506 89.6011 69.9552 89.7474 70.3786C89.8937 70.8019 90.1265 71.1902 90.4311 71.5187C90.7356 71.8472 91.1052 72.1087 91.5162 72.2867C91.9273 72.4646 92.3709 72.555 92.8189 72.5522H92.8094Z" fill="#939598"></path><path d="M106.299 64.4059H108.507L113.067 71.3911V64.4059H114.737V73.8454H112.614L107.969 66.6336V73.8454H106.299V64.4059Z" fill="#939598"></path><path d="M128.359 66.4355C128.162 66.1924 127.911 65.9991 127.625 65.8712C127.34 65.7433 127.029 65.6844 126.716 65.6992C125.942 65.6992 125.168 66.039 125.168 66.9074C125.168 68.7953 129.633 67.7098 129.633 71.0608C129.633 73.0809 128.038 74.0626 126.197 74.0626C125.62 74.0908 125.045 73.9911 124.511 73.7708C123.978 73.5505 123.499 73.215 123.11 72.7883L124.375 71.5611C124.586 71.8635 124.869 72.1083 125.199 72.2732C125.529 72.4381 125.895 72.5178 126.263 72.5051C127.037 72.5051 127.906 72.0803 127.906 71.2119C127.906 69.154 123.45 70.334 123.45 66.9735C123.45 65.0856 125.168 64.1417 126.914 64.1417C127.899 64.1006 128.862 64.4384 129.605 65.0856L128.359 66.4355Z" fill="#939598"></path><path d="M142.726 64.1794C143.388 64.1387 144.052 64.2384 144.674 64.4718C145.296 64.7052 145.861 65.0671 146.333 65.534C146.805 66.0008 147.174 66.562 147.414 67.1809C147.655 67.7998 147.762 68.4625 147.729 69.1257C147.751 69.7867 147.637 70.4452 147.393 71.0599C147.149 71.6746 146.781 72.2322 146.311 72.6976C145.841 73.163 145.28 73.5262 144.663 73.7644C144.046 74.0025 143.386 74.1105 142.726 74.0815C142.059 74.1106 141.392 74.0044 140.768 73.7692C140.143 73.534 139.572 73.1747 139.089 72.713C138.607 72.2513 138.223 71.6966 137.961 71.0825C137.699 70.4684 137.563 69.8076 137.563 69.1399C137.563 68.4721 137.699 67.8113 137.961 67.1972C138.223 66.5831 138.607 66.0285 139.089 65.5667C139.572 65.105 140.143 64.7457 140.768 64.5105C141.392 64.2753 142.059 64.1691 142.726 64.1983V64.1794ZM142.726 72.5523C143.174 72.5551 143.617 72.4646 144.028 72.2867C144.439 72.1088 144.809 71.8472 145.113 71.5187C145.418 71.1902 145.651 70.802 145.797 70.3786C145.944 69.9552 146 69.5061 145.963 69.0596C145.987 68.6204 145.921 68.1809 145.769 67.768C145.618 67.3551 145.383 66.9774 145.081 66.6581C144.778 66.3387 144.414 66.0844 144.01 65.9106C143.606 65.7368 143.17 65.6471 142.73 65.6471C142.291 65.6471 141.855 65.7368 141.451 65.9106C141.047 66.0844 140.683 66.3387 140.38 66.6581C140.077 66.9774 139.843 67.3551 139.691 67.768C139.54 68.1809 139.474 68.6204 139.497 69.0596C139.461 69.5061 139.517 69.9552 139.664 70.3786C139.81 70.802 140.043 71.1902 140.347 71.5187C140.652 71.8472 141.021 72.1088 141.433 72.2867C141.844 72.4646 142.287 72.5551 142.735 72.5523H142.726Z" fill="#939598"></path><path d="M156.205 64.4059H159.471C161.284 64.4059 162.983 64.9911 162.983 67.0961C163.022 67.7212 162.817 68.3369 162.41 68.8128C162.003 69.2887 161.426 69.5871 160.802 69.6448L163.294 73.8454H161.284L159.103 69.8619H157.886V73.8454H156.205V64.4059ZM159.179 68.3894C160.123 68.3894 161.227 68.3044 161.227 67.0867C161.227 65.869 160.189 65.8407 159.339 65.8407H157.895V68.3894H159.179Z" fill="#939598"></path><path d="M173.149 65.9351H170.317V64.4059H177.746V65.9162H174.914V73.8454H173.244L173.149 65.9351Z" fill="#939598"></path><path d="M185.694 64.4059H187.365V73.8454H185.694V64.4059Z" fill="#939598"></path><path d="M203.837 70.3717C203.837 71.3731 203.439 72.3335 202.731 73.0416C202.023 73.7497 201.063 74.1475 200.061 74.1475C199.06 74.1475 198.1 73.7497 197.391 73.0416C196.683 72.3335 196.286 71.3731 196.286 70.3717V64.4059H197.956V70.2961C197.937 70.5851 197.977 70.8749 198.074 71.1476C198.172 71.4204 198.324 71.6702 198.522 71.8817C198.72 72.0932 198.959 72.2618 199.224 72.3771C199.49 72.4923 199.776 72.5518 200.066 72.5518C200.356 72.5518 200.642 72.4923 200.908 72.3771C201.173 72.2618 201.413 72.0932 201.61 71.8817C201.808 71.6702 201.96 71.4204 202.058 71.1476C202.155 70.8749 202.195 70.5851 202.176 70.2961V64.4059H203.847L203.837 70.3717Z" fill="#939598"></path><path d="M212.824 64.4059H215.372L217.864 71.0136L220.404 64.4059H222.924V73.8454H221.329V66.0106L218.497 73.8265H217.298L214.466 66.0106V73.8454H212.871L212.824 64.4059Z" fill="#939598"></path><path d="M239.991 50.2467C239.994 50.6327 239.921 51.0157 239.774 51.3726C239.626 51.7296 239.409 52.0534 239.134 52.3246C238.859 52.5959 238.533 52.8091 238.174 52.9516C237.815 53.0941 237.431 53.1629 237.045 53.154C236.279 53.154 235.545 52.8497 235.003 52.308C234.461 51.7663 234.157 51.0316 234.157 50.2655C234.157 49.4995 234.461 48.7648 235.003 48.2231C235.545 47.6814 236.279 47.377 237.045 47.377C237.43 47.3616 237.814 47.4247 238.173 47.5625C238.532 47.7002 238.86 47.9098 239.135 48.1784C239.411 48.4469 239.629 48.7688 239.776 49.1244C239.923 49.48 239.996 49.8619 239.991 50.2467ZM234.855 50.2467C234.847 50.5463 234.898 50.8447 235.007 51.1239C235.117 51.4031 235.281 51.6574 235.491 51.8716C235.7 52.0858 235.951 52.2554 236.228 52.3703C236.505 52.4853 236.802 52.5431 237.102 52.5405C237.395 52.5357 237.685 52.4721 237.953 52.3534C238.221 52.2346 238.463 52.0632 238.664 51.8492C238.865 51.6353 239.02 51.3832 239.122 51.1079C239.223 50.8326 239.268 50.5397 239.254 50.2467C239.254 49.9553 239.197 49.6669 239.085 49.3977C238.974 49.1286 238.811 48.8841 238.605 48.6781C238.399 48.4721 238.154 48.3087 237.885 48.1972C237.616 48.0857 237.327 48.0284 237.036 48.0284C236.745 48.0284 236.456 48.0857 236.187 48.1972C235.918 48.3087 235.673 48.4721 235.467 48.6781C235.261 48.8841 235.098 49.1286 234.987 49.3977C234.875 49.6669 234.818 49.9553 234.818 50.2467H234.855ZM236.63 51.757H235.96V48.9251C236.325 48.8648 236.694 48.8364 237.064 48.8402C237.411 48.8103 237.759 48.8825 238.065 49.0478C238.157 49.1249 238.23 49.2219 238.279 49.3315C238.328 49.441 238.352 49.5603 238.348 49.6803C238.312 49.8327 238.229 49.9697 238.11 50.0715C237.992 50.1734 237.843 50.2347 237.687 50.2467C237.83 50.3074 237.954 50.4049 238.047 50.5293C238.14 50.6537 238.198 50.8004 238.216 50.9546C238.24 51.2045 238.311 51.4478 238.424 51.672H237.706C237.592 51.4536 237.515 51.2174 237.48 50.9735C237.423 50.6525 237.244 50.511 236.876 50.511H236.564L236.63 51.757ZM236.63 50.1239H236.942C237.31 50.1239 237.612 50.0012 237.612 49.7086C237.612 49.416 237.414 49.2649 236.998 49.2649C236.876 49.2491 236.752 49.2491 236.63 49.2649V50.1239Z" fill="#034EA2"></path></g><defs><clipPath id="clip0_6_86"><rect width="240" height="74.0625" fill="white"></rect></clipPath></defs></svg> 